<svg width="63" height="10" viewBox="0 0 63 10" fill="none" xmlns="http://www.w3.org/2000/svg">
<path d="M18.2435 0.86738L19.3633 3.51897L19.4806 3.79681L19.7811 3.82262L22.6491 4.06899L20.4722 5.95301L20.2441 6.15044L20.3124 6.44428L20.9641 9.24801L18.5016 7.76213L18.2433 7.60625L17.985 7.76213L15.5222 9.24816L16.1729 6.44409L16.241 6.15053L16.0132 5.95319L13.8371 4.0677L16.7055 3.82129L17.0059 3.79549L17.1232 3.51779L18.2435 0.86738ZM13.2723 3.88066L13.2766 3.87943L13.2723 3.88066Z" fill="#FDCC0D" stroke="#FDCC0D"/>
<path d="M5.24353 0.86738L6.36329 3.51897L6.48062 3.79681L6.78111 3.82262L9.64909 4.06899L7.47225 5.95301L7.24414 6.15044L7.31244 6.44428L7.96411 9.24801L5.50162 7.76213L5.2433 7.60625L4.98498 7.76213L2.52224 9.24816L3.17286 6.44409L3.24098 6.15053L3.01322 5.95319L0.837089 4.0677L3.70548 3.82129L4.00586 3.79549L4.12324 3.51779L5.24353 0.86738ZM0.272296 3.88066L0.276554 3.87943L0.272296 3.88066Z" fill="#FDCC0D" stroke="#FDCC0D"/>
<path d="M31.2435 0.86738L32.3633 3.51897L32.4806 3.79681L32.7811 3.82262L35.6491 4.06899L33.4722 5.95301L33.2441 6.15044L33.3124 6.44428L33.9641 9.24801L31.5016 7.76213L31.2433 7.60625L30.985 7.76213L28.5222 9.24816L29.1729 6.44409L29.241 6.15053L29.0132 5.95319L26.8371 4.0677L29.7055 3.82129L30.0059 3.79549L30.1232 3.51779L31.2435 0.86738ZM26.2723 3.88066L26.2766 3.87943L26.2723 3.88066Z" fill="#FDCC0D" stroke="#FDCC0D"/>
<path d="M44.2435 0.86738L45.3633 3.51897L45.4806 3.79681L45.7811 3.82262L48.6491 4.06899L46.4722 5.95301L46.2441 6.15044L46.3124 6.44428L46.9641 9.24801L44.5016 7.76213L44.2433 7.60625L43.985 7.76213L41.5222 9.24816L42.1729 6.44409L42.241 6.15053L42.0132 5.95319L39.8371 4.0677L42.7055 3.82129L43.0059 3.79549L43.1232 3.51779L44.2435 0.86738ZM39.2723 3.88066L39.2766 3.87943L39.2723 3.88066Z" fill="#FDCC0D" stroke="#FDCC0D"/>
<path d="M57.2435 0.86738L58.3633 3.51897L58.4806 3.79681L58.7811 3.82262L61.6491 4.06899L59.4722 5.95301L59.2441 6.15044L59.3124 6.44428L59.9641 9.24801L57.5016 7.76213L57.2433 7.60625L56.985 7.76213L54.5222 9.24816L55.1729 6.44409L55.241 6.15053L55.0132 5.95319L52.8371 4.0677L55.7055 3.82129L56.0059 3.79549L56.1232 3.51779L57.2435 0.86738ZM52.2723 3.88066L52.2766 3.87943L52.2723 3.88066Z" fill="#FDCC0D" stroke="#FDCC0D"/>
</svg>
